<svg xmlns="http://www.w3.org/2000/svg" width="147.289" height="25.85"><defs><style>.a{fill:#fff}</style></defs><path class="a" d="M62.059.586h13.379v3.015h-9.954v5.065h9.749v3.015h-9.749v8.431h-3.425zM84.718 5.27c4.245 0 6.968 3.25 6.968 7.7v.732h-10.92a4.283 4.283 0 004.508 3.893 5.984 5.984 0 004.011-1.552l1.406 2.02a8.243 8.243 0 01-5.738 2.05 7.423 7.423 0 01-.234-14.843zm-3.981 6.265H88.7a3.782 3.782 0 00-3.982-3.747 3.9 3.9 0 00-3.981 3.747zM101.027 5.27c4.245 0 6.968 3.25 6.968 7.7v.732h-10.92a4.283 4.283 0 004.508 3.893 5.984 5.984 0 004.011-1.552l1.405 2.02a8.242 8.242 0 01-5.738 2.05 7.423 7.423 0 01-.234-14.843zm-3.981 6.265h7.963a3.782 3.782 0 00-3.982-3.747 3.9 3.9 0 00-3.981 3.747zM111.043.586h3.074v19.527h-3.074zM117.718 1.903a1.9 1.9 0 111.9 1.9 1.918 1.918 0 01-1.9-1.9zm.381 4.069h3.074v14.14h-3.071zM125.77 16.481V8.313h-2.338V5.62h2.342V1.756h3.074V5.62h2.869v2.693h-2.869v7.407c0 .966.469 1.669 1.347 1.669a1.981 1.981 0 001.375-.5l.732 2.313a4.053 4.053 0 01-2.9.908 3.261 3.261 0 01-3.632-3.629zM135.52 23.128a1.915 1.915 0 002.02-1.23l.7-1.61-5.8-14.316h3.278l4.128 10.6 4.128-10.6h3.308l-6.822 16.687a4.733 4.733 0 01-4.859 3.191 8.714 8.714 0 01-1.727-.2v-2.752a6.159 6.159 0 001.646.23z"/><g><path class="a" d="M13.213 15.094l8.354-4.778-8.354-4.857V.44l11.305 7.227v5.218l-11.305 7.227z"/></g><g><path class="a" d="M37.732 5.459l-8.354 4.775 8.354 4.858v5.018l-11.3-7.227V7.665l11.3-7.227z"/></g><g><path class="a" d="M39.64 15.094l8.354-4.778-8.354-4.857V.44l11.305 7.227v5.218L39.64 20.112z"/></g><g><path class="a" d="M11.305 5.459l-8.353 4.775 8.354 4.858v5.018L.001 12.883V7.665L11.306.438z"/></g></svg>